<svg id="svg" version="1.1" xmlns="http://www.w3.org/2000/svg" xmlns:xlink="http://www.w3.org/1999/xlink" width="400" height="400" viewBox="0, 0, 400,400"><g id="svgg"><path id="path0" d="M89.223 74.707 C 89.331 75.405,89.527 77.822,89.657 80.078 C 89.788 82.334,92.344 111.514,95.337 144.922 C 98.330 178.330,100.779 205.972,100.780 206.348 C 100.781 206.996,104.688 207.031,177.344 207.031 C 250.005 207.031,253.906 207.066,253.894 207.715 C 253.841 210.662,248.467 263.789,248.198 264.027 C 248.008 264.196,236.896 267.278,223.507 270.876 L 199.162 277.419 174.874 270.883 C 161.515 267.287,150.421 264.196,150.219 264.013 C 149.914 263.737,146.956 233.449,146.894 229.980 L 146.875 228.906 124.982 228.906 L 103.090 228.906 103.296 230.176 C 103.409 230.874,104.668 246.475,106.093 264.844 C 107.518 283.213,108.708 298.271,108.737 298.306 C 108.765 298.340,129.210 304.003,154.169 310.890 L 199.549 323.411 201.239 322.850 C 202.615 322.395,282.609 300.306,288.130 298.858 C 290.106 298.339,289.096 307.245,295.495 233.918 C 300.088 181.295,301.306 168.397,302.139 163.574 L 302.324 162.500 221.873 162.500 L 141.421 162.500 141.242 161.621 C 141.069 160.772,137.476 118.664,137.492 117.676 C 137.498 117.287,154.640 117.188,221.875 117.188 C 301.971 117.188,306.250 117.153,306.252 116.504 C 306.254 115.447,307.304 104.304,308.360 94.141 C 308.884 89.092,309.422 83.203,309.555 81.055 C 309.688 78.906,309.894 76.313,310.013 75.293 L 310.230 73.437 199.628 73.438 L 89.027 73.438 89.223 74.707 " stroke="none" fill="#f3f3f3" fill-rule="evenodd"></path><path id="path1" d="M200.000 51.172 L 200.000 73.438 255.125 73.438 L 310.250 73.438 309.981 78.027 C 309.833 80.552,309.194 87.715,308.561 93.945 C 307.929 100.176,307.227 107.559,307.003 110.352 C 306.778 113.145,306.513 115.825,306.415 116.309 L 306.235 117.188 253.118 117.188 L 200.000 117.188 200.000 139.844 L 200.000 162.500 251.172 162.500 C 293.785 162.500,302.344 162.588,302.344 163.026 C 302.344 163.315,301.996 166.171,301.571 169.373 C 301.146 172.575,298.504 201.563,295.701 233.789 C 290.642 291.946,290.053 298.399,289.787 298.581 C 289.711 298.634,285.605 299.776,280.664 301.119 C 275.723 302.463,255.596 308.001,235.938 313.427 L 200.195 323.291 200.094 346.048 C 199.999 367.607,200.030 368.793,200.680 368.592 C 202.166 368.131,312.414 337.831,314.063 337.430 C 315.029 337.195,315.963 336.875,316.138 336.719 C 316.475 336.417,316.595 335.271,318.164 317.383 C 318.972 308.169,331.040 172.207,332.414 156.836 C 334.981 128.109,343.750 29.350,343.750 29.159 C 343.750 29.020,311.406 28.906,271.875 28.906 L 200.000 28.906 200.000 51.172 M200.000 242.019 C 200.000 275.157,200.036 276.995,200.684 276.803 C 201.060 276.691,211.914 273.760,224.805 270.290 C 237.695 266.820,248.264 263.956,248.290 263.924 C 248.316 263.893,249.503 251.563,250.927 236.523 C 252.351 221.484,253.600 208.696,253.702 208.105 L 253.887 207.031 226.943 207.031 L 200.000 207.031 200.000 242.019 " stroke="none" fill="#ec642c" fill-rule="evenodd"></path><path id="path2" d="M23.438 1.547 C 23.438 2.398,23.614 4.815,23.831 6.918 C 24.047 9.021,25.013 19.663,25.978 30.566 C 26.943 41.470,28.520 59.224,29.482 70.020 C 30.444 80.815,31.940 97.646,32.806 107.422 C 34.707 128.866,35.827 141.375,36.339 146.875 C 36.549 149.131,37.335 158.008,38.087 166.602 C 38.839 175.195,39.630 184.072,39.845 186.328 C 40.060 188.584,41.022 199.307,41.983 210.156 C 42.944 221.006,44.522 238.760,45.488 249.609 C 46.455 260.459,47.955 277.334,48.821 287.109 C 49.687 296.885,50.740 308.662,51.161 313.281 C 51.852 320.871,52.567 328.887,54.604 351.921 C 55.267 359.420,55.286 359.509,56.251 359.804 C 56.787 359.967,62.324 361.534,68.555 363.286 C 79.007 366.223,84.941 367.898,109.473 374.832 C 114.360 376.213,122.402 378.486,127.344 379.883 C 132.285 381.279,140.371 383.564,145.313 384.961 C 150.254 386.357,158.340 388.643,163.281 390.039 C 168.223 391.436,176.353 393.728,181.348 395.134 C 186.343 396.540,192.209 398.210,194.384 398.845 C 199.461 400.328,198.563 400.414,209.095 397.435 C 214.083 396.024,220.889 394.101,224.219 393.161 C 230.376 391.423,282.707 376.716,293.750 373.620 C 297.080 372.686,303.584 370.863,308.203 369.568 C 312.822 368.273,322.752 365.486,330.270 363.374 L 343.939 359.535 345.184 345.490 C 345.868 337.766,346.978 325.293,347.649 317.773 C 350.096 290.369,350.777 282.716,352.134 267.383 C 352.895 258.789,353.689 249.912,353.898 247.656 C 354.427 241.943,355.582 229.033,357.428 208.203 C 358.295 198.428,359.791 181.597,360.753 170.801 C 361.715 160.005,363.293 142.251,364.260 131.348 C 365.227 120.444,366.196 109.590,366.415 107.227 C 366.810 102.952,367.985 89.777,369.531 72.266 C 369.977 67.217,370.686 59.307,371.106 54.688 C 371.526 50.068,372.574 38.291,373.435 28.516 C 374.296 18.740,375.176 8.910,375.391 6.670 C 375.606 4.431,375.781 2.014,375.781 1.299 L 375.781 0.000 199.609 0.000 L 23.438 0.000 23.438 1.547 M343.750 29.159 C 343.750 29.350,334.981 128.109,332.414 156.836 C 331.040 172.207,318.972 308.169,318.164 317.383 C 316.595 335.271,316.475 336.417,316.138 336.719 C 315.963 336.875,315.029 337.195,314.063 337.430 C 312.417 337.830,202.168 368.130,200.684 368.591 C 200.038 368.791,200.000 367.543,200.000 346.120 C 200.000 324.777,199.960 323.438,199.316 323.440 C 198.621 323.443,108.945 298.832,108.601 298.544 C 108.400 298.376,103.184 233.359,103.147 230.563 L 103.125 228.900 125.098 229.001 L 147.070 229.102 148.610 246.517 L 150.149 263.933 174.391 270.451 C 187.724 274.036,198.940 276.965,199.316 276.961 C 199.962 276.954,200.000 275.025,200.000 241.994 L 200.000 207.034 150.294 206.935 L 100.588 206.836 95.061 145.313 C 92.021 111.475,89.407 81.460,89.251 78.613 L 88.968 73.438 144.484 73.438 L 200.000 73.438 200.000 51.172 L 200.000 28.906 271.875 28.906 C 311.406 28.906,343.750 29.020,343.750 29.159 M139.627 139.844 L 141.571 162.500 170.786 162.500 L 200.000 162.500 200.000 139.844 L 200.000 117.188 168.841 117.188 L 137.682 117.188 139.627 139.844 " stroke="none" fill="#e44c24" fill-rule="evenodd"></path><path id="path3" d="" stroke="none" fill="#e99376" fill-rule="evenodd"></path><path id="path4" d="" stroke="none" fill="#f4ac8b" fill-rule="evenodd"></path></g></svg>