<svg id="svg" version="1.1" xmlns="http://www.w3.org/2000/svg" xmlns:xlink="http://www.w3.org/1999/xlink" width="400" height="400" viewBox="0, 0, 400,400"><g id="svgg"><path id="path0" d="M268.167 153.006 C 263.354 153.598,259.919 154.939,258.208 156.893 C 257.487 157.716,257.525 157.869,258.375 157.565 C 265.877 154.878,272.540 156.081,277.337 160.989 C 287.438 171.322,278.478 186.952,255.210 199.585 C 253.121 200.719,251.632 201.961,252.152 202.134 C 252.373 202.208,255.807 201.229,259.167 200.135 C 280.106 193.313,292.404 181.917,291.776 169.917 C 291.216 159.193,280.467 151.494,268.167 153.006 M166.917 155.282 C 155.982 155.750,142.457 159.370,131.762 164.690 C 106.549 177.234,194.871 182.430,240.083 171.064 C 241.239 170.773,242.056 170.449,242.750 170.005 C 245.345 168.346,252.397 164.667,252.983 164.667 C 253.084 164.667,253.167 164.590,253.167 164.497 C 253.167 164.403,252.998 164.367,252.792 164.415 C 252.084 164.581,244.249 165.822,240.250 166.402 C 194.576 173.024,141.510 172.462,145.816 165.401 C 147.342 162.897,158.524 158.469,170.210 155.740 C 172.365 155.237,171.330 155.093,166.917 155.282 M159.750 183.958 C 159.383 184.100,158.256 184.534,157.245 184.922 C 135.329 193.329,151.380 203.479,187.333 203.949 C 205.050 204.181,221.508 202.249,238.167 197.983 C 244.161 196.448,244.108 196.473,242.583 195.920 C 240.264 195.078,236.952 193.090,234.614 191.137 L 233.312 190.048 231.614 190.362 C 207.134 194.891,191.774 195.657,168.833 193.490 C 157.716 192.440,154.934 189.888,159.592 185.012 C 160.903 183.640,160.924 183.502,159.750 183.958 M164.351 211.755 C 151.641 215.979,151.460 222.275,163.911 227.084 C 178.870 232.862,203.427 233.404,223.417 228.398 C 229.217 226.945,238.932 223.652,239.054 223.097 C 239.070 223.024,237.996 222.496,236.667 221.924 C 233.217 220.437,230.780 219.252,227.917 217.670 L 225.417 216.288 223.833 216.565 C 204.282 219.991,195.630 220.509,180.583 219.158 C 169.683 218.180,165.778 217.295,164.511 215.515 C 163.716 214.399,164.547 212.623,166.375 211.534 C 166.806 211.278,166.987 210.992,166.708 211.007 C 166.640 211.010,165.579 211.347,164.351 211.755 M138.000 229.277 C 125.721 230.462,110.383 236.950,107.843 242.033 C 105.755 246.212,109.941 248.851,121.563 250.678 C 166.504 257.746,214.553 257.640,250.250 250.394 C 275.714 245.226,287.446 237.242,277.363 231.944 C 275.876 231.163,275.852 231.170,276.590 232.176 C 281.414 238.748,268.423 243.651,238.000 246.739 C 199.691 250.628,154.106 249.580,133.194 244.330 C 121.952 241.507,120.513 239.122,127.878 235.516 C 133.074 232.973,139.433 231.284,146.000 230.704 L 147.583 230.564 146.667 230.137 C 145.037 229.378,141.051 228.982,138.000 229.277 M290.767 245.280 C 276.876 260.269,199.482 268.566,145.026 260.904 C 140.517 260.270,140.332 260.266,141.231 260.822 C 151.309 267.050,199.244 269.813,236.667 266.322 C 270.137 263.201,289.608 255.790,291.760 245.354 C 292.079 243.807,292.128 243.810,290.767 245.280 " stroke="none" fill="#3474bc" fill-rule="evenodd"></path><path id="path1" d="M225.011 19.667 C 227.916 33.347,224.625 45.063,214.732 56.259 C 210.291 61.284,205.152 65.839,194.901 73.833 C 174.405 89.818,167.652 97.825,166.847 107.098 C 166.089 115.824,170.670 125.070,181.908 137.500 C 183.011 138.720,191.727 147.428,193.423 149.005 C 194.159 149.690,195.584 151.005,196.589 151.928 C 200.623 155.631,200.456 155.571,199.080 152.827 C 197.534 149.745,195.365 146.347,190.840 139.917 C 185.540 132.387,182.978 127.895,181.369 123.310 C 176.833 110.393,182.321 98.156,198.576 84.943 C 214.793 71.760,223.199 62.145,227.910 51.388 C 233.258 39.177,232.182 25.967,225.204 18.167 L 224.533 17.417 225.011 19.667 M253.250 69.415 C 245.281 71.732,237.518 74.749,230.083 78.417 C 204.598 90.992,195.148 106.741,202.602 124.214 C 204.274 128.135,207.079 132.481,210.746 136.833 C 218.045 145.496,217.296 154.950,208.676 162.955 C 207.528 164.021,208.087 163.838,210.500 162.361 C 222.632 154.931,229.174 145.633,228.312 137.044 C 227.933 133.270,226.800 130.860,222.726 125.164 C 215.414 114.938,213.650 110.629,214.584 105.275 C 216.213 95.929,228.276 85.110,253.630 70.250 C 256.786 68.400,256.780 68.388,253.250 69.415 M114.122 320.875 C 114.063 361.341,114.111 359.372,113.078 363.083 C 111.824 367.589,108.241 371.756,102.954 374.857 L 101.825 375.520 102.704 376.566 C 103.188 377.141,104.510 378.708,105.642 380.047 L 107.701 382.482 108.556 382.145 C 116.303 379.091,122.363 373.441,124.780 367.019 C 126.789 361.682,126.832 360.676,126.833 318.625 L 126.833 284.000 120.505 284.000 L 114.176 284.000 114.122 320.875 M155.096 303.511 C 149.747 304.062,139.602 306.763,138.288 307.988 C 138.172 308.096,139.748 315.136,139.928 315.317 C 139.968 315.357,141.108 315.041,142.459 314.613 C 153.240 311.203,162.160 311.295,165.925 314.856 C 167.895 316.719,168.500 318.865,168.500 323.991 L 168.500 327.286 163.875 327.381 C 145.428 327.760,135.861 333.919,135.224 345.826 C 134.643 356.676,140.842 362.852,152.323 362.862 C 158.503 362.867,163.574 360.997,168.777 356.795 C 170.024 355.789,170.145 355.727,170.221 356.057 C 170.266 356.255,170.472 357.635,170.678 359.125 L 171.053 361.833 175.786 361.833 L 180.519 361.833 180.456 339.875 L 180.393 317.917 180.020 316.261 C 177.826 306.522,169.120 302.069,155.096 303.511 M262.917 303.435 C 256.619 304.059,245.592 306.973,245.212 308.114 C 245.149 308.302,246.757 315.146,246.897 315.286 C 246.956 315.345,247.959 315.082,249.127 314.701 C 259.619 311.284,268.848 311.267,272.701 314.658 C 274.793 316.500,275.359 318.297,275.461 323.433 L 275.538 327.282 270.727 327.385 C 251.717 327.791,242.310 334.218,242.262 346.833 C 242.221 357.393,247.989 362.839,259.237 362.863 C 265.431 362.875,270.152 361.154,275.607 356.893 L 277.131 355.702 277.317 356.976 C 277.420 357.677,277.625 359.056,277.775 360.042 L 278.046 361.833 282.694 361.833 L 287.343 361.833 287.291 339.458 C 287.234 314.464,287.330 316.546,286.085 313.239 C 284.219 308.282,279.613 304.941,273.000 303.749 C 271.477 303.474,264.663 303.262,262.917 303.435 M187.229 304.625 C 187.313 304.915,198.373 340.939,202.567 354.583 L 204.770 361.750 212.170 361.750 L 219.571 361.750 221.175 358.167 C 225.905 347.607,229.984 335.680,233.319 322.667 C 234.855 316.671,237.167 305.880,237.167 304.703 L 237.167 304.333 230.931 304.333 L 224.696 304.333 224.600 304.958 C 224.547 305.302,224.310 306.858,224.074 308.417 C 222.291 320.170,219.316 332.234,215.038 345.065 C 214.155 347.713,213.411 349.813,213.385 349.732 C 213.359 349.650,212.814 347.308,212.174 344.527 C 211.534 341.746,210.551 337.996,209.990 336.193 C 209.428 334.391,208.641 331.867,208.242 330.583 C 207.842 329.300,206.654 325.475,205.602 322.083 C 202.570 312.307,202.210 311.147,201.396 308.542 C 200.973 307.190,200.514 305.690,200.374 305.208 L 200.120 304.333 193.632 304.333 C 187.532 304.333,187.149 304.351,187.229 304.625 M288.333 304.833 C 288.333 305.306,288.370 305.333,289.000 305.333 L 289.667 305.333 289.667 307.250 L 289.667 309.167 290.250 309.167 L 290.833 309.167 290.833 307.250 L 290.833 305.333 291.500 305.333 C 292.130 305.333,292.167 305.306,292.167 304.833 L 292.167 304.333 290.250 304.333 L 288.333 304.333 288.333 304.833 M292.833 306.750 L 292.833 309.167 293.333 309.167 L 293.833 309.167 293.843 307.542 L 293.852 305.917 294.465 307.549 C 295.288 309.741,295.618 309.761,296.430 307.667 L 296.979 306.250 296.989 307.708 L 297.000 309.167 297.583 309.167 L 298.167 309.167 298.167 306.741 L 298.167 304.315 297.402 304.366 L 296.638 304.417 296.131 305.750 C 295.451 307.539,295.479 307.537,294.842 305.832 L 294.282 304.333 293.558 304.333 L 292.833 304.333 292.833 306.750 M168.500 341.720 L 168.500 348.440 167.427 349.300 C 157.606 357.170,147.204 355.127,147.134 345.316 C 147.090 339.038,150.855 335.972,159.667 335.110 C 159.987 335.079,162.106 335.041,164.375 335.027 L 168.500 335.000 168.500 341.720 M275.500 341.727 L 275.500 348.454 274.292 349.374 C 263.814 357.357,253.356 354.821,254.076 344.472 C 254.550 337.662,259.264 335.087,271.375 335.022 L 275.500 335.000 275.500 341.727 " stroke="none" fill="#cc3434" fill-rule="evenodd"></path><path id="path2" d="" stroke="none" fill="#5454c0" fill-rule="evenodd"></path><path id="path3" d="" stroke="none" fill="#a4547c" fill-rule="evenodd"></path><path id="path4" d="" stroke="none" fill="#d05434" fill-rule="evenodd"></path></g></svg>