<svg id="svg" version="1.1" xmlns="http://www.w3.org/2000/svg" xmlns:xlink="http://www.w3.org/1999/xlink" width="400" height="400" viewBox="0, 0, 400,400"><g id="svgg"><path id="path0" d="M174.000 30.047 C 157.900 31.471,147.371 33.304,138.521 36.222 C 122.883 41.379,118.709 47.840,118.636 67.000 L 118.600 76.600 157.000 76.800 L 195.400 77.000 196.701 77.928 C 197.416 78.438,198.496 79.504,199.101 80.296 L 200.200 81.736 200.319 95.855 C 200.446 110.952,200.318 112.285,198.539 114.399 C 195.975 117.447,201.536 117.200,135.481 117.200 C 74.686 117.200,73.493 117.227,67.600 118.745 C 51.226 122.961,39.770 135.747,35.653 154.400 C 35.240 156.274,34.673 158.797,34.014 161.700 C 33.802 162.635,33.426 164.480,33.179 165.800 C 32.932 167.120,32.576 169.010,32.389 170.000 C 31.994 172.091,31.381 176.670,30.805 181.827 C 30.283 186.499,30.283 199.101,30.805 203.773 C 31.598 210.880,32.031 213.817,33.256 220.400 C 33.991 224.354,35.106 229.334,36.300 234.000 C 39.201 245.336,43.626 253.662,49.976 259.728 C 52.866 262.490,57.404 265.600,58.541 265.600 C 58.816 265.600,59.211 265.763,59.420 265.963 C 61.228 267.688,65.505 268.174,79.000 268.187 L 92.200 268.200 92.430 250.200 C 92.698 229.266,93.025 226.793,96.757 217.481 C 103.780 199.958,120.358 185.527,138.000 181.581 C 139.210 181.311,140.830 180.901,141.600 180.670 C 142.523 180.393,159.344 180.166,191.000 180.003 C 238.859 179.758,239.008 179.755,241.878 178.883 C 254.285 175.116,262.659 166.431,266.061 153.800 C 266.863 150.822,266.856 63.042,266.053 60.400 C 262.334 48.158,254.855 40.626,240.600 34.767 C 238.824 34.036,234.015 32.861,231.000 32.420 C 229.240 32.163,226.720 31.795,225.400 31.602 C 222.051 31.114,215.876 30.465,210.131 29.997 C 204.388 29.529,179.462 29.563,174.000 30.047 M150.969 40.790 C 161.517 44.419,164.633 57.970,156.696 65.701 C 150.920 71.328,141.749 71.316,136.113 65.673 C 125.077 54.622,136.340 35.756,150.969 40.790 " stroke="none" fill="#337bb3" fill-rule="evenodd"></path><path id="path1" d="M295.600 114.000 C 295.600 114.220,295.355 114.400,295.055 114.400 C 294.755 114.400,294.036 114.873,293.459 115.450 C 291.146 117.763,291.200 117.203,291.200 138.838 C 291.200 151.683,291.058 158.841,290.800 159.000 C 290.580 159.136,290.400 160.767,290.400 162.624 C 290.400 164.608,290.235 166.000,290.000 166.000 C 289.780 166.000,289.600 166.720,289.600 167.600 C 289.600 168.480,289.420 169.200,289.200 169.200 C 288.980 169.200,288.800 169.740,288.800 170.400 C 288.800 171.060,288.620 171.600,288.400 171.600 C 288.180 171.600,288.000 172.140,288.000 172.800 C 288.000 173.460,287.820 174.000,287.600 174.000 C 287.380 174.000,287.200 174.360,287.200 174.800 C 287.200 175.240,287.065 175.601,286.900 175.603 C 286.541 175.607,285.600 177.544,285.600 178.280 C 285.600 178.566,285.420 178.800,285.200 178.800 C 284.980 178.800,284.800 178.988,284.800 179.217 C 284.800 179.446,284.609 179.851,284.376 180.117 C 284.143 180.383,283.606 181.140,283.182 181.800 C 282.758 182.460,282.184 183.351,281.906 183.780 C 281.387 184.580,278.696 187.512,275.727 190.510 C 273.892 192.365,270.997 194.545,269.414 195.267 C 268.856 195.521,268.400 195.880,268.400 196.064 C 268.400 196.249,268.055 196.400,267.633 196.400 C 267.212 196.400,266.807 196.535,266.733 196.700 C 266.660 196.865,265.700 197.425,264.600 197.944 C 263.500 198.463,262.287 199.048,261.905 199.244 C 261.523 199.440,260.859 199.600,260.429 199.600 C 259.999 199.600,259.536 199.780,259.400 200.000 C 259.264 200.220,258.623 200.400,257.976 200.400 C 257.329 200.400,256.800 200.580,256.800 200.800 C 256.800 201.020,255.810 201.200,254.600 201.200 C 253.390 201.200,252.400 201.380,252.400 201.600 C 252.400 201.864,236.600 202.000,205.800 202.000 C 175.000 202.000,159.200 202.136,159.200 202.400 C 159.200 202.620,158.311 202.800,157.224 202.800 C 156.137 202.800,155.136 202.980,155.000 203.200 C 154.864 203.420,154.133 203.600,153.376 203.600 C 152.619 203.600,152.000 203.780,152.000 204.000 C 152.000 204.220,151.460 204.400,150.800 204.400 C 150.140 204.400,149.600 204.580,149.600 204.800 C 149.600 205.020,149.245 205.200,148.812 205.200 C 148.379 205.200,147.383 205.560,146.600 206.000 C 145.817 206.440,144.911 206.800,144.588 206.800 C 144.265 206.800,144.000 206.936,144.000 207.102 C 144.000 207.269,143.415 207.659,142.700 207.970 C 141.985 208.281,141.310 208.645,141.200 208.778 C 141.090 208.911,140.138 209.465,139.084 210.010 C 138.030 210.554,136.545 211.585,135.784 212.299 C 135.023 213.014,134.400 213.481,134.400 213.338 C 134.400 213.195,134.040 213.493,133.600 214.000 C 133.160 214.507,132.800 214.794,132.800 214.637 C 132.800 214.480,132.099 215.161,131.242 216.151 C 130.385 217.141,129.592 217.859,129.479 217.745 C 129.366 217.632,129.154 217.913,129.010 218.370 C 128.865 218.826,128.548 219.200,128.306 219.200 C 128.065 219.200,127.978 219.311,128.114 219.448 C 128.250 219.584,128.100 219.957,127.780 220.278 C 127.459 220.598,126.625 221.701,125.925 222.730 C 125.225 223.758,124.536 224.690,124.394 224.800 C 124.252 224.910,123.881 225.585,123.570 226.300 C 123.259 227.015,122.901 227.600,122.773 227.600 C 122.646 227.600,121.955 228.905,121.239 230.500 C 120.522 232.095,119.770 233.713,119.568 234.095 C 119.366 234.477,119.200 235.152,119.200 235.595 C 119.200 236.038,119.020 236.400,118.800 236.400 C 118.580 236.400,118.400 236.940,118.400 237.600 C 118.400 238.260,118.220 238.800,118.000 238.800 C 117.780 238.800,117.600 239.520,117.600 240.400 C 117.600 241.280,117.435 242.000,117.233 242.000 C 115.852 242.000,115.853 338.747,117.234 340.180 C 117.435 340.389,117.600 341.154,117.600 341.880 C 117.600 342.606,117.780 343.200,118.000 343.200 C 118.220 343.200,118.400 343.740,118.400 344.400 C 118.400 345.060,118.580 345.600,118.800 345.600 C 119.020 345.600,119.200 346.140,119.200 346.800 C 119.200 347.460,119.380 348.000,119.600 348.000 C 119.820 348.000,120.000 348.360,120.000 348.800 C 120.000 349.240,120.146 349.600,120.325 349.600 C 120.504 349.600,120.898 350.230,121.200 351.000 C 121.502 351.770,121.896 352.400,122.075 352.400 C 122.254 352.400,122.400 352.670,122.400 353.000 C 122.400 353.330,122.580 353.600,122.800 353.600 C 123.020 353.600,123.200 353.870,123.200 354.200 C 123.200 354.530,123.380 354.800,123.600 354.800 C 123.820 354.800,124.000 355.051,124.000 355.357 C 124.000 355.664,124.270 356.018,124.600 356.145 C 124.930 356.271,125.200 356.577,125.200 356.823 C 125.200 357.707,134.154 366.800,135.025 366.800 C 135.341 366.800,135.600 366.938,135.600 367.106 C 135.600 367.274,136.320 367.856,137.200 368.400 C 138.080 368.944,138.800 369.526,138.800 369.694 C 138.800 369.862,139.145 370.000,139.567 370.000 C 139.988 370.000,140.393 370.146,140.467 370.324 C 140.586 370.613,142.001 371.465,146.400 373.896 C 147.170 374.322,148.025 374.594,148.300 374.502 C 148.575 374.409,148.800 374.528,148.800 374.767 C 148.800 375.005,149.160 375.200,149.600 375.200 C 150.040 375.200,150.400 375.380,150.400 375.600 C 150.400 375.820,150.760 376.000,151.200 376.000 C 151.640 376.000,152.000 376.180,152.000 376.400 C 152.000 376.620,152.540 376.800,153.200 376.800 C 153.860 376.800,154.400 376.980,154.400 377.200 C 154.400 377.420,154.749 377.600,155.176 377.600 C 155.603 377.600,156.064 377.780,156.200 378.000 C 156.336 378.220,156.887 378.400,157.424 378.400 C 157.961 378.400,158.400 378.580,158.400 378.800 C 158.400 379.020,158.940 379.200,159.600 379.200 C 160.260 379.200,160.800 379.380,160.800 379.600 C 160.800 379.820,161.329 380.000,161.976 380.000 C 162.623 380.000,163.264 380.180,163.400 380.400 C 163.536 380.620,164.166 380.800,164.800 380.800 C 165.434 380.800,166.064 380.980,166.200 381.200 C 166.336 381.420,167.056 381.600,167.800 381.600 C 168.544 381.600,169.264 381.780,169.400 382.000 C 169.536 382.220,170.267 382.400,171.024 382.400 C 171.781 382.400,172.400 382.562,172.400 382.760 C 172.400 382.958,173.210 383.228,174.200 383.360 C 175.190 383.492,176.810 383.708,177.800 383.840 C 178.790 383.972,179.600 384.242,179.600 384.440 C 179.600 384.638,180.680 384.800,182.000 384.800 C 183.333 384.800,184.400 384.978,184.400 385.200 C 184.400 385.425,185.525 385.600,186.976 385.600 C 188.393 385.600,189.664 385.780,189.800 386.000 C 189.942 386.229,192.004 386.400,194.624 386.400 C 197.408 386.400,199.200 386.557,199.200 386.800 C 199.200 387.053,202.000 387.200,206.800 387.200 C 211.263 387.200,214.400 387.045,214.400 386.825 C 214.400 386.619,216.335 386.354,218.700 386.237 C 226.040 385.873,229.200 385.551,229.200 385.168 C 229.200 384.966,230.190 384.800,231.400 384.800 C 232.610 384.800,233.600 384.620,233.600 384.400 C 233.600 384.180,234.489 384.000,235.576 384.000 C 236.663 384.000,237.664 383.820,237.800 383.600 C 237.936 383.380,238.656 383.200,239.400 383.200 C 240.144 383.200,240.852 383.039,240.974 382.842 C 241.095 382.645,241.871 382.382,242.697 382.258 C 246.278 381.717,247.200 381.491,247.200 381.156 C 247.200 380.960,247.819 380.800,248.576 380.800 C 249.333 380.800,250.064 380.620,250.200 380.400 C 250.336 380.180,250.977 380.000,251.624 380.000 C 252.271 380.000,252.800 379.820,252.800 379.600 C 252.800 379.380,253.340 379.200,254.000 379.200 C 254.660 379.200,255.200 379.020,255.200 378.800 C 255.200 378.580,255.650 378.400,256.200 378.400 C 256.750 378.400,257.200 378.220,257.200 378.000 C 257.200 377.780,257.740 377.600,258.400 377.600 C 259.060 377.600,259.600 377.420,259.600 377.200 C 259.600 376.980,259.949 376.800,260.376 376.800 C 260.803 376.800,261.264 376.620,261.400 376.400 C 261.536 376.180,262.087 376.000,262.624 376.000 C 263.161 376.000,263.600 375.820,263.600 375.600 C 263.600 375.380,263.872 375.200,264.205 375.200 C 264.538 375.200,265.123 375.031,265.505 374.826 C 265.887 374.620,267.280 373.953,268.600 373.344 C 269.920 372.736,271.090 372.139,271.200 372.019 C 271.310 371.898,271.760 371.603,272.200 371.362 C 274.463 370.125,275.046 369.742,275.643 369.100 C 276.001 368.715,276.506 368.400,276.765 368.400 C 277.024 368.400,277.686 367.950,278.236 367.400 C 278.786 366.850,279.385 366.400,279.566 366.400 C 280.861 366.400,290.928 355.023,291.441 352.979 C 291.576 352.441,291.847 352.000,292.043 352.000 C 292.240 352.000,292.400 351.640,292.400 351.200 C 292.400 350.760,292.580 350.400,292.800 350.400 C 293.020 350.400,293.200 350.040,293.200 349.600 C 293.200 349.160,293.380 348.800,293.600 348.800 C 293.820 348.800,294.000 348.451,294.000 348.024 C 294.000 347.597,294.180 347.136,294.400 347.000 C 294.620 346.864,294.800 346.313,294.800 345.776 C 294.800 345.239,294.980 344.800,295.200 344.800 C 295.420 344.800,295.600 344.181,295.600 343.424 C 295.600 342.667,295.780 341.936,296.000 341.800 C 296.220 341.664,296.400 340.843,296.400 339.976 C 296.400 339.109,296.580 338.400,296.800 338.400 C 297.432 338.400,297.336 311.425,296.700 310.322 C 295.435 308.127,292.843 306.000,291.434 306.000 C 290.671 306.000,289.936 305.820,289.800 305.600 C 289.638 305.338,276.729 305.200,252.376 305.200 L 215.200 305.200 215.200 301.200 L 215.200 297.200 276.000 297.200 C 316.267 297.200,336.800 297.065,336.800 296.800 C 336.800 296.578,337.867 296.400,339.200 296.400 C 340.533 296.400,341.600 296.222,341.600 296.000 C 341.600 295.780,342.140 295.600,342.800 295.600 C 343.460 295.600,344.000 295.420,344.000 295.200 C 344.000 294.980,344.529 294.800,345.176 294.800 C 345.823 294.800,346.464 294.620,346.600 294.400 C 346.736 294.180,347.287 294.000,347.824 294.000 C 348.361 294.000,348.800 293.820,348.800 293.600 C 348.800 293.380,349.160 293.200,349.600 293.200 C 350.040 293.200,350.400 293.020,350.400 292.800 C 350.400 292.580,350.760 292.400,351.200 292.400 C 351.640 292.400,352.000 292.241,352.000 292.047 C 352.000 291.852,352.315 291.593,352.700 291.471 C 355.313 290.642,362.062 284.443,365.192 279.996 C 365.732 279.228,366.406 278.360,366.691 278.068 C 366.975 277.775,367.125 277.403,367.025 277.241 C 366.925 277.078,367.193 276.693,367.621 276.385 C 368.050 276.076,368.400 275.586,368.400 275.295 C 368.400 275.004,368.760 274.380,369.200 273.908 C 369.640 273.436,370.000 272.813,370.000 272.525 C 370.000 272.236,370.180 272.000,370.400 272.000 C 370.620 272.000,370.800 271.833,370.800 271.628 C 370.800 271.423,371.340 270.089,372.000 268.663 C 372.660 267.237,373.200 265.875,373.200 265.635 C 373.200 265.396,373.391 265.200,373.624 265.200 C 373.857 265.200,373.963 265.064,373.860 264.898 C 373.758 264.731,374.017 263.889,374.437 263.026 C 374.857 262.163,375.200 261.039,375.200 260.529 C 375.200 260.018,375.380 259.600,375.600 259.600 C 375.820 259.600,376.000 259.150,376.000 258.600 C 376.000 258.050,376.180 257.600,376.400 257.600 C 376.620 257.600,376.800 257.150,376.800 256.600 C 376.800 256.050,376.980 255.600,377.200 255.600 C 377.420 255.600,377.600 255.150,377.600 254.600 C 377.600 254.050,377.780 253.600,378.000 253.600 C 378.220 253.600,378.400 253.060,378.400 252.400 C 378.400 251.740,378.580 251.200,378.800 251.200 C 379.020 251.200,379.200 250.660,379.200 250.000 C 379.200 249.340,379.380 248.800,379.600 248.800 C 379.820 248.800,380.000 248.159,380.000 247.376 C 380.000 246.529,380.162 246.053,380.400 246.200 C 380.642 246.349,380.800 245.804,380.800 244.824 C 380.800 243.931,380.980 243.200,381.200 243.200 C 381.420 243.200,381.600 242.581,381.600 241.824 C 381.600 241.067,381.780 240.336,382.000 240.200 C 382.220 240.064,382.400 239.243,382.400 238.376 C 382.400 237.509,382.580 236.800,382.800 236.800 C 383.020 236.800,383.200 235.990,383.200 235.000 C 383.200 234.010,383.380 233.200,383.600 233.200 C 383.820 233.200,384.000 232.300,384.000 231.200 C 384.000 230.100,384.180 229.200,384.400 229.200 C 384.633 229.200,384.800 227.867,384.800 226.000 C 384.800 224.186,384.969 222.800,385.190 222.800 C 386.027 222.800,385.227 187.497,384.371 186.620 C 384.167 186.411,384.000 185.196,384.000 183.920 C 384.000 182.640,383.821 181.600,383.600 181.600 C 383.380 181.600,383.200 180.610,383.200 179.400 C 383.200 178.190,383.020 177.200,382.800 177.200 C 382.580 177.200,382.400 176.311,382.400 175.224 C 382.400 174.137,382.220 173.136,382.000 173.000 C 381.780 172.864,381.600 171.953,381.600 170.976 C 381.600 169.999,381.420 169.200,381.200 169.200 C 380.980 169.200,380.800 168.491,380.800 167.624 C 380.800 166.757,380.620 165.936,380.400 165.800 C 380.180 165.664,380.000 164.843,380.000 163.976 C 380.000 163.109,379.820 162.400,379.600 162.400 C 379.380 162.400,379.200 161.781,379.200 161.024 C 379.200 160.267,379.020 159.536,378.800 159.400 C 378.580 159.264,378.400 158.711,378.400 158.171 C 378.400 157.631,378.238 156.877,378.039 156.495 C 377.840 156.113,377.463 154.990,377.200 154.000 C 376.937 153.010,376.560 151.887,376.361 151.505 C 376.162 151.123,376.000 150.448,376.000 150.005 C 376.000 149.562,375.820 149.200,375.600 149.200 C 375.380 149.200,375.200 148.750,375.200 148.200 C 375.200 147.650,375.020 147.200,374.800 147.200 C 374.580 147.200,374.400 146.660,374.400 146.000 C 374.400 145.340,374.234 144.800,374.032 144.800 C 373.829 144.800,373.537 144.215,373.382 143.500 C 373.226 142.785,372.987 142.110,372.850 142.000 C 372.376 141.621,371.600 140.009,371.600 139.405 C 371.600 139.072,371.420 138.800,371.200 138.800 C 370.980 138.800,370.800 138.522,370.800 138.183 C 370.800 137.844,370.440 137.180,370.000 136.708 C 369.560 136.236,369.200 135.613,369.200 135.325 C 369.200 135.036,369.020 134.800,368.800 134.800 C 368.580 134.800,368.400 134.575,368.400 134.300 C 368.399 134.025,367.949 133.277,367.400 132.638 C 366.850 131.999,366.400 131.338,366.400 131.170 C 366.400 131.003,365.725 130.148,364.900 129.272 C 364.075 128.396,362.860 127.035,362.200 126.248 C 361.540 125.461,360.807 124.813,360.571 124.809 C 360.335 124.804,359.180 123.902,358.004 122.804 C 356.829 121.707,355.370 120.588,354.763 120.319 C 354.155 120.050,353.720 119.729,353.797 119.605 C 353.874 119.481,352.961 118.934,351.770 118.390 C 350.578 117.845,349.602 117.265,349.601 117.100 C 349.601 116.935,349.161 116.800,348.624 116.800 C 348.087 116.800,347.536 116.620,347.400 116.400 C 347.264 116.180,346.803 116.000,346.376 116.000 C 345.949 116.000,345.600 115.820,345.600 115.600 C 345.600 115.380,344.880 115.200,344.000 115.200 C 343.120 115.200,342.400 115.020,342.400 114.800 C 342.400 114.580,341.601 114.400,340.624 114.400 C 339.647 114.400,338.736 114.220,338.600 114.000 C 338.440 113.741,330.796 113.600,316.976 113.600 C 302.992 113.600,295.600 113.738,295.600 114.000 M335.470 130.177 C 348.329 132.440,357.697 143.290,362.431 161.400 C 362.604 162.060,363.122 164.040,363.583 165.800 C 364.471 169.188,364.720 170.293,365.751 175.400 C 371.228 202.526,371.010 217.900,364.823 241.000 C 359.995 259.026,351.255 273.926,343.082 278.063 C 337.760 280.757,343.284 280.549,270.600 280.785 C 195.439 281.030,203.178 280.612,200.500 284.569 L 199.200 286.490 199.200 301.050 C 199.200 317.510,199.291 318.065,202.327 320.131 C 205.069 321.997,205.029 321.995,244.141 321.998 L 281.282 322.000 281.100 328.500 C 280.965 333.306,280.712 335.732,280.128 337.809 C 276.297 351.449,261.721 361.354,237.500 366.775 C 234.799 367.379,232.392 367.913,231.000 368.216 C 221.474 370.291,203.282 371.050,193.000 369.801 C 185.786 368.926,178.141 367.490,173.000 366.045 C 169.068 364.940,167.853 364.571,164.600 363.494 C 147.521 357.837,136.293 348.332,133.397 337.080 C 132.461 333.443,132.505 248.421,133.445 244.732 C 136.572 232.464,144.519 223.896,156.800 219.551 L 159.400 218.631 206.800 218.374 C 256.515 218.104,254.199 218.185,261.800 216.466 C 278.981 212.581,295.947 197.495,302.809 180.000 C 306.389 170.874,306.842 167.351,307.086 146.700 L 307.289 129.600 319.744 129.601 C 328.797 129.601,333.094 129.758,335.470 130.177 " stroke="none" fill="#bc9c14" fill-rule="evenodd"></path><path id="path2" d="M307.086 146.700 C 306.842 167.351,306.389 170.874,302.809 180.000 C 295.947 197.495,278.981 212.581,261.800 216.466 C 254.199 218.185,256.515 218.104,206.800 218.374 L 159.400 218.631 156.800 219.551 C 144.519 223.896,136.572 232.464,133.445 244.732 C 132.505 248.421,132.461 333.443,133.397 337.080 C 136.293 348.332,147.521 357.837,164.600 363.494 C 167.853 364.571,169.068 364.940,173.000 366.045 C 178.141 367.490,185.786 368.926,193.000 369.801 C 203.282 371.050,221.474 370.291,231.000 368.216 C 239.043 366.465,240.609 366.085,245.200 364.770 C 269.938 357.684,280.582 346.930,281.100 328.500 L 281.282 322.000 244.141 321.998 C 205.029 321.995,205.069 321.997,202.327 320.131 C 199.291 318.065,199.200 317.510,199.200 301.050 L 199.200 286.490 200.500 284.569 C 203.178 280.612,195.439 281.030,270.600 280.785 C 343.284 280.549,337.760 280.757,343.082 278.063 C 351.255 273.926,359.995 259.026,364.823 241.000 C 368.419 227.574,369.600 219.527,369.600 208.441 C 369.600 197.383,368.280 187.055,364.763 170.600 C 364.575 169.720,364.044 167.560,363.583 165.800 C 363.122 164.040,362.604 162.060,362.431 161.400 C 359.499 150.181,353.497 139.797,347.217 135.076 C 341.153 130.518,336.553 129.601,319.744 129.601 L 307.289 129.600 307.086 146.700 M250.281 330.051 C 257.347 332.896,260.600 337.420,260.600 344.400 C 260.600 361.740,236.817 365.079,231.769 348.447 C 229.862 342.163,233.545 333.589,239.215 331.114 C 239.977 330.781,241.050 330.316,241.600 330.081 C 242.941 329.508,248.882 329.487,250.281 330.051 " stroke="none" fill="#fccc1c" fill-rule="evenodd"></path><path id="path3" d="M141.732 40.774 C 131.192 44.568,128.215 57.763,136.113 65.673 C 144.920 74.491,160.140 68.737,161.086 56.232 C 161.891 45.588,151.473 37.267,141.732 40.774 M241.600 330.081 C 241.050 330.316,239.977 330.781,239.215 331.114 C 233.545 333.589,229.862 342.163,231.769 348.447 C 236.817 365.079,260.600 361.740,260.600 344.400 C 260.600 337.420,257.347 332.896,250.281 330.051 C 248.882 329.487,242.941 329.508,241.600 330.081 " stroke="none" fill="#f8f9fa" fill-rule="evenodd"></path><path id="path4" d="M181.000 13.200 C 180.853 13.437,178.356 13.600,174.856 13.600 C 171.563 13.600,168.788 13.772,168.570 13.990 C 168.356 14.204,166.745 14.406,164.990 14.438 C 163.236 14.471,161.706 14.645,161.591 14.825 C 161.476 15.006,159.991 15.190,158.291 15.235 C 156.591 15.280,155.200 15.471,155.200 15.658 C 155.200 15.846,154.120 16.000,152.800 16.000 C 151.467 16.000,150.400 16.178,150.400 16.400 C 150.400 16.620,149.500 16.800,148.400 16.800 C 147.300 16.800,146.400 16.980,146.400 17.200 C 146.400 17.420,145.590 17.600,144.600 17.600 C 143.610 17.600,142.800 17.780,142.800 18.000 C 142.800 18.220,142.080 18.400,141.200 18.400 C 140.320 18.400,139.600 18.580,139.600 18.800 C 139.600 19.020,138.880 19.200,138.000 19.200 C 137.120 19.200,136.400 19.380,136.400 19.600 C 136.400 19.820,135.860 20.000,135.200 20.000 C 134.540 20.000,134.000 20.180,134.000 20.400 C 134.000 20.620,133.460 20.800,132.800 20.800 C 132.140 20.800,131.600 20.980,131.600 21.200 C 131.600 21.420,131.150 21.600,130.600 21.600 C 130.050 21.600,129.600 21.780,129.600 22.000 C 129.600 22.220,129.165 22.400,128.633 22.400 C 128.102 22.400,127.604 22.588,127.527 22.818 C 127.451 23.048,126.998 23.265,126.522 23.301 C 126.045 23.337,125.744 23.509,125.851 23.683 C 125.959 23.857,125.760 24.000,125.410 24.000 C 125.059 24.000,124.328 24.291,123.786 24.646 C 123.244 25.001,122.800 25.153,122.800 24.984 C 122.800 24.815,122.485 24.937,122.100 25.255 C 121.715 25.574,120.905 26.082,120.300 26.385 C 119.695 26.688,119.200 27.085,119.200 27.268 C 119.200 27.450,118.912 27.600,118.560 27.600 C 118.209 27.600,117.417 28.140,116.800 28.800 C 116.183 29.460,115.560 30.000,115.414 30.000 C 115.130 30.000,112.001 33.223,110.483 35.079 C 109.470 36.317,108.108 38.614,107.742 39.700 C 107.613 40.085,107.348 40.400,107.153 40.400 C 106.959 40.400,106.800 40.760,106.800 41.200 C 106.800 41.640,106.620 42.000,106.400 42.000 C 106.180 42.000,106.000 42.435,106.000 42.967 C 106.000 43.498,105.822 43.993,105.603 44.067 C 105.385 44.140,105.166 44.695,105.116 45.300 C 105.066 45.905,104.885 46.400,104.713 46.400 C 104.541 46.400,104.400 46.940,104.400 47.600 C 104.400 48.260,104.220 48.800,104.000 48.800 C 103.780 48.800,103.600 49.509,103.600 50.376 C 103.600 51.243,103.420 52.064,103.200 52.200 C 102.980 52.336,102.800 53.787,102.800 55.424 C 102.800 57.141,102.631 58.400,102.400 58.400 C 102.141 58.400,102.000 63.467,102.000 72.800 C 102.000 82.133,102.141 87.200,102.400 87.200 C 102.620 87.200,102.800 87.605,102.800 88.100 C 102.801 89.079,104.519 91.348,104.940 90.926 C 105.083 90.783,105.200 90.877,105.200 91.133 C 105.200 91.390,105.560 91.600,106.000 91.600 C 106.440 91.600,106.800 91.780,106.800 92.000 C 106.800 92.220,107.340 92.400,108.000 92.400 C 108.660 92.400,109.200 92.580,109.200 92.800 C 109.200 93.064,121.933 93.200,146.600 93.200 L 184.000 93.200 184.000 97.200 L 184.000 101.200 127.224 101.200 C 89.804 101.200,70.363 101.336,70.200 101.600 C 70.064 101.820,69.053 102.000,67.953 102.000 C 66.721 102.000,66.048 102.154,66.200 102.400 C 66.352 102.646,65.679 102.800,64.447 102.800 C 63.347 102.800,62.336 102.980,62.200 103.200 C 62.064 103.420,61.413 103.600,60.753 103.600 C 60.055 103.600,59.656 103.767,59.800 104.000 C 59.944 104.233,59.537 104.400,58.824 104.400 C 58.151 104.400,57.600 104.580,57.600 104.800 C 57.600 105.020,57.161 105.200,56.624 105.200 C 56.087 105.200,55.536 105.380,55.400 105.600 C 55.264 105.820,54.803 106.000,54.376 106.000 C 53.949 106.000,53.600 106.180,53.600 106.400 C 53.600 106.620,53.240 106.800,52.800 106.800 C 52.360 106.800,52.000 106.980,52.000 107.200 C 52.000 107.420,51.640 107.600,51.200 107.600 C 50.760 107.600,50.400 107.780,50.400 108.000 C 50.400 108.220,50.051 108.400,49.624 108.400 C 49.197 108.400,48.736 108.580,48.599 108.801 C 48.463 109.022,47.597 109.546,46.676 109.967 C 45.754 110.387,44.564 111.197,44.030 111.766 C 43.497 112.335,42.898 112.800,42.699 112.800 C 42.500 112.800,41.672 113.475,40.859 114.300 C 40.047 115.125,39.117 115.859,38.795 115.932 C 38.472 116.005,38.080 116.271,37.923 116.524 C 37.153 117.771,35.754 119.200,35.304 119.200 C 34.859 119.200,34.763 119.398,34.813 120.213 C 34.820 120.331,33.965 121.282,32.913 122.326 C 31.861 123.371,30.944 124.479,30.875 124.788 C 30.806 125.097,30.401 125.652,29.975 126.022 C 29.549 126.391,29.200 126.898,29.200 127.147 C 29.200 127.396,29.053 127.600,28.874 127.600 C 28.579 127.600,25.462 133.433,25.418 134.067 C 25.408 134.213,25.265 134.468,25.100 134.633 C 24.935 134.798,24.800 135.263,24.800 135.667 C 24.800 136.070,24.620 136.400,24.400 136.400 C 24.180 136.400,24.000 136.760,24.000 137.200 C 24.000 137.640,23.820 138.000,23.600 138.000 C 23.380 138.000,23.200 138.540,23.200 139.200 C 23.200 139.860,23.020 140.400,22.800 140.400 C 22.580 140.400,22.400 140.951,22.400 141.624 C 22.400 142.337,22.233 142.744,22.000 142.600 C 21.767 142.456,21.600 142.855,21.600 143.553 C 21.600 144.213,21.420 144.864,21.200 145.000 C 20.980 145.136,20.800 145.676,20.800 146.200 C 20.800 146.724,20.639 147.252,20.442 147.374 C 20.106 147.582,19.894 148.611,19.347 152.700 C 19.222 153.635,18.958 154.400,18.760 154.400 C 18.562 154.400,18.400 155.109,18.400 155.976 C 18.400 156.843,18.220 157.664,18.000 157.800 C 17.780 157.936,17.600 158.836,17.600 159.800 C 17.600 160.764,17.420 161.664,17.200 161.800 C 16.980 161.936,16.800 162.937,16.800 164.024 C 16.800 165.111,16.620 166.000,16.400 166.000 C 16.174 166.000,16.000 167.133,16.000 168.600 C 16.000 170.067,15.826 171.200,15.600 171.200 C 15.367 171.200,15.200 172.525,15.200 174.376 C 15.200 176.123,15.020 177.664,14.800 177.800 C 14.280 178.122,14.249 208.000,14.768 208.000 C 14.971 208.000,15.239 209.305,15.363 210.900 C 15.955 218.496,16.091 219.600,16.433 219.600 C 16.635 219.600,16.800 220.489,16.800 221.576 C 16.800 222.663,16.980 223.664,17.200 223.800 C 17.420 223.936,17.600 224.847,17.600 225.824 C 17.600 226.801,17.780 227.600,18.000 227.600 C 18.220 227.600,18.400 228.309,18.400 229.176 C 18.400 230.043,18.580 230.864,18.800 231.000 C 19.020 231.136,19.200 232.047,19.200 233.024 C 19.200 234.001,19.380 234.800,19.600 234.800 C 19.820 234.800,20.000 235.520,20.000 236.400 C 20.000 237.280,20.180 238.000,20.400 238.000 C 20.620 238.000,20.800 238.630,20.800 239.400 C 20.800 240.170,20.980 240.800,21.200 240.800 C 21.420 240.800,21.600 241.340,21.600 242.000 C 21.600 242.660,21.780 243.200,22.000 243.200 C 22.220 243.200,22.400 243.740,22.400 244.400 C 22.400 245.060,22.580 245.600,22.800 245.600 C 23.020 245.600,23.200 246.140,23.200 246.800 C 23.200 247.460,23.380 248.000,23.600 248.000 C 23.820 248.000,24.000 248.362,24.000 248.805 C 24.000 249.248,24.167 249.923,24.371 250.305 C 24.918 251.330,25.336 252.557,25.260 252.911 C 25.223 253.082,25.463 253.326,25.794 253.453 C 26.125 253.580,26.283 253.865,26.146 254.087 C 26.010 254.308,26.110 254.621,26.369 254.781 C 26.628 254.941,26.869 255.461,26.905 255.936 C 26.941 256.411,27.112 256.800,27.285 256.800 C 27.458 256.800,27.600 257.070,27.600 257.400 C 27.600 257.730,27.780 258.000,28.000 258.000 C 28.220 258.000,28.400 258.360,28.400 258.800 C 28.400 259.240,28.580 259.600,28.800 259.600 C 29.020 259.600,29.200 259.836,29.200 260.125 C 29.200 260.413,29.515 260.998,29.900 261.425 C 30.285 261.851,30.855 262.695,31.168 263.300 C 31.480 263.905,31.885 264.400,32.068 264.400 C 32.250 264.400,32.400 264.682,32.400 265.026 C 32.400 265.370,33.300 266.529,34.400 267.600 C 35.500 268.671,36.400 269.658,36.400 269.792 C 36.400 270.251,38.315 271.952,38.558 271.709 C 38.691 271.576,38.800 271.755,38.800 272.106 C 38.800 272.458,39.160 272.860,39.600 273.000 C 40.040 273.140,40.400 273.452,40.400 273.694 C 40.400 273.935,40.514 274.020,40.653 273.881 C 40.792 273.742,41.404 274.162,42.013 274.814 C 42.622 275.466,43.279 276.000,43.472 276.000 C 43.665 276.000,44.083 276.360,44.400 276.800 C 44.717 277.240,45.297 277.600,45.688 277.600 C 46.080 277.600,46.400 277.780,46.400 278.000 C 46.400 278.220,46.760 278.400,47.200 278.400 C 47.640 278.400,48.000 278.580,48.000 278.800 C 48.000 279.020,48.270 279.200,48.600 279.200 C 48.930 279.200,49.200 279.380,49.200 279.600 C 49.200 279.820,49.650 280.000,50.200 280.000 C 50.750 280.000,51.200 280.180,51.200 280.400 C 51.200 280.620,51.560 280.800,52.000 280.800 C 52.440 280.800,52.800 280.980,52.800 281.200 C 52.800 281.420,53.239 281.600,53.776 281.600 C 54.313 281.600,54.864 281.780,55.000 282.000 C 55.136 282.220,55.777 282.400,56.424 282.400 C 57.071 282.400,57.600 282.580,57.600 282.800 C 57.600 283.020,58.230 283.200,59.000 283.200 C 59.770 283.200,60.400 283.380,60.400 283.600 C 60.400 283.822,61.459 284.000,62.776 284.000 C 64.083 284.000,65.264 284.180,65.400 284.400 C 65.559 284.657,72.263 284.800,84.200 284.800 C 96.137 284.800,102.841 284.657,103.000 284.400 C 103.136 284.180,103.603 284.000,104.037 284.000 C 104.471 284.000,105.449 283.378,106.209 282.617 C 108.806 280.020,108.788 280.217,108.794 255.500 C 108.798 240.904,108.938 233.200,109.200 233.200 C 109.420 233.200,109.600 232.300,109.600 231.200 C 109.600 230.100,109.780 229.200,110.000 229.200 C 110.220 229.200,110.400 228.671,110.400 228.024 C 110.400 227.377,110.580 226.736,110.800 226.600 C 111.020 226.464,111.200 225.913,111.200 225.376 C 111.200 224.839,111.380 224.400,111.600 224.400 C 111.820 224.400,112.000 223.950,112.000 223.400 C 112.000 222.850,112.180 222.400,112.400 222.400 C 112.620 222.400,112.800 222.040,112.800 221.600 C 112.800 221.160,112.980 220.800,113.200 220.800 C 113.420 220.800,113.600 220.522,113.600 220.183 C 113.600 219.844,113.960 219.180,114.400 218.708 C 114.840 218.236,115.200 217.613,115.200 217.325 C 115.200 217.036,115.380 216.800,115.600 216.800 C 115.820 216.800,116.000 216.552,116.000 216.248 C 116.000 215.945,116.720 214.954,117.600 214.048 C 118.480 213.141,119.245 212.184,119.300 211.921 C 119.420 211.348,124.065 206.613,124.515 206.605 C 124.688 206.602,125.000 206.330,125.208 206.000 C 125.417 205.670,125.591 205.563,125.594 205.761 C 125.597 205.960,125.926 205.746,126.325 205.286 C 126.724 204.826,127.309 204.394,127.625 204.325 C 127.941 204.256,128.480 203.898,128.822 203.529 C 129.164 203.159,130.649 202.282,132.122 201.578 C 133.595 200.875,134.800 200.131,134.800 199.926 C 134.800 199.721,134.942 199.641,135.116 199.748 C 135.403 199.925,137.100 199.304,138.895 198.364 C 139.277 198.164,140.042 198.000,140.595 198.000 C 141.148 198.000,141.600 197.820,141.600 197.600 C 141.600 197.380,142.399 197.200,143.376 197.200 C 144.353 197.200,145.264 197.020,145.400 196.800 C 145.562 196.537,161.471 196.400,191.824 196.400 C 222.341 196.400,238.000 196.264,238.000 196.000 C 238.000 195.774,239.133 195.600,240.600 195.600 C 242.410 195.600,243.202 195.448,243.206 195.100 C 243.210 194.767,243.342 194.800,243.600 195.200 C 243.858 195.600,243.990 195.633,243.994 195.300 C 243.998 194.998,244.545 194.800,245.376 194.800 C 246.133 194.800,246.864 194.620,247.000 194.400 C 247.136 194.180,247.777 194.000,248.424 194.000 C 249.071 194.000,249.600 193.820,249.600 193.600 C 249.600 193.380,250.039 193.200,250.576 193.200 C 251.113 193.200,251.664 193.020,251.800 192.800 C 251.936 192.580,252.397 192.400,252.824 192.400 C 253.251 192.400,253.600 192.220,253.600 192.000 C 253.600 191.780,253.924 191.600,254.320 191.600 C 254.716 191.600,255.256 191.384,255.520 191.120 C 255.784 190.856,256.000 190.778,256.000 190.947 C 256.000 191.116,256.523 190.882,257.162 190.427 C 257.801 189.972,258.493 189.600,258.700 189.600 C 258.907 189.600,259.402 189.240,259.800 188.800 C 260.198 188.360,260.739 188.000,261.003 188.000 C 261.266 188.000,262.046 187.460,262.737 186.800 C 263.428 186.140,264.153 185.600,264.349 185.600 C 264.876 185.600,272.800 177.692,272.800 177.166 C 272.800 176.918,273.251 176.179,273.803 175.524 C 274.354 174.868,274.686 174.140,274.541 173.904 C 274.384 173.651,274.465 173.593,274.738 173.762 C 275.015 173.933,275.200 173.787,275.200 173.400 C 275.200 173.044,275.380 172.864,275.600 173.000 C 275.820 173.136,276.000 172.877,276.000 172.424 C 276.000 171.971,276.180 171.600,276.400 171.600 C 276.620 171.600,276.800 171.240,276.800 170.800 C 276.800 170.360,276.980 170.000,277.200 170.000 C 277.420 170.000,277.600 169.640,277.600 169.200 C 277.600 168.760,277.780 168.400,278.000 168.400 C 278.220 168.400,278.400 168.040,278.400 167.600 C 278.400 167.160,278.580 166.800,278.800 166.800 C 279.020 166.800,279.200 166.440,279.200 166.000 C 279.200 165.560,279.380 165.200,279.600 165.200 C 279.820 165.200,280.000 164.660,280.000 164.000 C 280.000 163.340,280.180 162.800,280.400 162.800 C 280.620 162.800,280.800 162.271,280.800 161.624 C 280.800 160.977,280.980 160.336,281.200 160.200 C 281.420 160.064,281.600 159.434,281.600 158.800 C 281.600 158.166,281.780 157.536,282.000 157.400 C 282.220 157.264,282.400 156.173,282.400 154.976 C 282.400 153.779,282.580 152.800,282.800 152.800 C 283.064 152.800,283.200 137.200,283.200 106.800 C 283.200 76.400,283.064 60.800,282.800 60.800 C 282.580 60.800,282.400 59.900,282.400 58.800 C 282.400 57.700,282.220 56.800,282.000 56.800 C 281.780 56.800,281.600 56.181,281.600 55.424 C 281.600 54.667,281.420 53.936,281.200 53.800 C 280.980 53.664,280.800 53.023,280.800 52.376 C 280.800 51.729,280.620 51.200,280.400 51.200 C 280.180 51.200,280.000 50.840,280.000 50.400 C 280.000 49.960,279.820 49.600,279.600 49.600 C 279.380 49.600,279.200 49.265,279.200 48.856 C 279.200 47.815,276.754 43.181,276.340 43.437 C 276.153 43.553,276.000 43.292,276.000 42.857 C 276.000 42.422,275.834 42.007,275.630 41.933 C 275.427 41.860,275.202 41.537,275.130 41.216 C 275.059 40.894,274.670 40.264,274.266 39.816 C 273.862 39.367,273.272 38.503,272.954 37.896 C 272.337 36.719,265.307 29.600,264.761 29.600 C 264.583 29.600,264.023 29.190,263.518 28.690 C 262.553 27.733,260.678 26.495,258.500 25.376 C 257.785 25.009,257.200 24.549,257.200 24.354 C 257.200 24.159,256.913 24.000,256.562 24.000 C 256.211 24.000,255.446 23.668,254.862 23.263 C 254.278 22.857,253.215 22.273,252.500 21.965 C 251.785 21.657,251.200 21.269,251.200 21.102 C 251.200 20.936,250.660 20.800,250.000 20.800 C 249.340 20.800,248.800 20.620,248.800 20.400 C 248.800 20.180,248.440 20.000,248.000 20.000 C 247.560 20.000,247.200 19.820,247.200 19.600 C 247.200 19.380,246.671 19.200,246.024 19.200 C 245.377 19.200,244.736 19.020,244.600 18.800 C 244.464 18.580,243.733 18.400,242.976 18.400 C 242.219 18.400,241.600 18.220,241.600 18.000 C 241.600 17.780,241.071 17.600,240.424 17.600 C 239.777 17.600,239.136 17.420,239.000 17.200 C 238.864 16.980,237.863 16.800,236.776 16.800 C 235.689 16.800,234.800 16.620,234.800 16.400 C 234.800 16.174,233.667 16.000,232.200 16.000 C 230.733 16.000,229.600 15.826,229.600 15.600 C 229.600 15.369,228.341 15.200,226.624 15.200 C 224.987 15.200,223.536 15.020,223.400 14.800 C 223.264 14.580,221.543 14.400,219.576 14.400 C 217.459 14.400,216.000 14.237,216.000 14.000 C 216.000 13.751,213.741 13.600,210.024 13.600 C 206.471 13.600,203.947 13.438,203.800 13.200 C 203.463 12.655,181.337 12.655,181.000 13.200 M210.131 29.997 C 215.876 30.465,222.051 31.114,225.400 31.602 C 226.720 31.795,229.240 32.163,231.000 32.420 C 234.015 32.861,238.824 34.036,240.600 34.767 C 254.855 40.626,262.334 48.158,266.053 60.400 C 266.856 63.042,266.863 150.822,266.061 153.800 C 262.659 166.431,254.285 175.116,241.878 178.883 C 239.008 179.755,238.859 179.758,191.000 180.003 C 159.344 180.166,142.523 180.393,141.600 180.670 C 140.830 180.901,139.210 181.311,138.000 181.581 C 120.358 185.527,103.780 199.958,96.757 217.481 C 93.025 226.793,92.698 229.266,92.430 250.200 L 92.200 268.200 79.000 268.187 C 65.505 268.174,61.228 267.688,59.420 265.963 C 59.211 265.763,58.816 265.600,58.541 265.600 C 53.174 265.600,41.918 251.628,38.079 240.200 C 36.701 236.099,34.479 226.978,33.256 220.400 C 32.031 213.817,31.598 210.880,30.805 203.773 C 30.283 199.101,30.283 186.499,30.805 181.827 C 31.381 176.670,31.994 172.091,32.389 170.000 C 32.576 169.010,32.932 167.120,33.179 165.800 C 33.426 164.480,33.802 162.635,34.014 161.700 C 34.673 158.797,35.240 156.274,35.653 154.400 C 39.770 135.747,51.226 122.961,67.600 118.745 C 73.493 117.227,74.686 117.200,135.481 117.200 C 201.536 117.200,195.975 117.447,198.539 114.399 C 200.318 112.285,200.446 110.952,200.319 95.855 L 200.200 81.736 199.101 80.296 C 198.496 79.504,197.416 78.438,196.701 77.928 L 195.400 77.000 157.000 76.800 L 118.600 76.600 118.636 67.000 C 118.677 56.267,119.208 52.949,121.601 48.459 C 125.924 40.349,136.261 35.311,154.500 32.427 C 161.814 31.270,166.145 30.742,174.000 30.047 C 179.462 29.563,204.388 29.529,210.131 29.997 " stroke="none" fill="#245c84" fill-rule="evenodd"></path></g></svg>